<?xml version="1.0" encoding="utf-8"?>
<!-- Svg Vector Icons : http://www.onlinewebfonts.com/icon -->
<!DOCTYPE svg PUBLIC "-//W3C//DTD SVG 1.1//EN" "http://www.w3.org/Graphics/SVG/1.1/DTD/svg11.dtd">
<svg version="1.1" xmlns="http://www.w3.org/2000/svg" xmlns:xlink="http://www.w3.org/1999/xlink" x="0px" y="0px" viewBox="0 0 1000 1000" enable-background="new 0 0 1000 1000" xml:space="preserve">
<g><g transform="translate(0.000000,512.000000) scale(0.100000,-0.100000)"><path fill="white" d="M4905.2,4997.2c-76.7-34.5-1659.5-1598.2-1703.6-1682.5c-120.7-237.6,95.8-496.3,352.6-419.7c67.1,19.2,170.6,113.1,611.3,551.9l532.7,528.9l3.8-3058.5c5.7-3056.6,5.7-3060.4,46-3112.1c74.7-101.6,136-132.2,256.8-132.2s182,30.7,256.8,132.2c40.2,51.7,40.2,55.6,46,3112.1l3.8,3058.5l532.7-528.9c440.8-438.8,544.3-532.7,611.3-551.9c101.6-30.7,199.3-11.5,275.9,51.7c113.1,95.8,141.8,237.6,76.7,366c-47.9,92-1623.1,1663.4-1694,1688.3C5045.1,5027.8,4970.4,5025.9,4905.2,4997.2z"/><path fill="white" d="M1448.1,2542.4c-180.1-57.5-333.5-210.8-398.6-400.5c-26.8-82.4-30.7-385.2-30.7-3250.1c0-3518.4-9.6-3255.9,132.2-3443.7c44.1-59.4,113.1-115,193.5-159.1l124.6-69h3535.7h3535.7l120.7,65.2c134.1,72.8,191.6,132.2,268.3,277.9l51.7,97.7v3229v3229l-47.9,95.8c-59.4,122.7-176.3,237.6-297,299c-93.9,44.1-107.3,46-638.1,51.7l-540.4,5.8v-306.6v-306.6l362.2-5.8c396.7-5.7,413.9-11.5,507.8-138c40.2-51.7,40.2-53.7,40.2-2922.4V-3979l-51.7-67.1c-109.2-141.8,176.3-130.3-3334.4-126.5l-3152.4,5.7l-70.9,55.6c-136.1,103.5-126.5-118.8-122.7,3027.8c5.8,2840,5.8,2845.8,46,2897.5c93.9,126.5,111.1,132.2,507.8,138l362.2,5.8v306.6v304.7l-511.7-1.9C1678.1,2567.3,1503.7,2559.6,1448.1,2542.4z"/></g></g>
</svg>
